<?xml version="1.0" encoding="utf-8"?>
<!-- Generator: Adobe Illustrator 27.0.0, SVG Export Plug-In . SVG Version: 6.00 Build 0)  -->
<svg version="1.1" id="Layer_1" xmlns="http://www.w3.org/2000/svg" xmlns:xlink="http://www.w3.org/1999/xlink" x="0px" y="0px"
	 viewBox="0 0 1125 1125" style="enable-background:new 0 0 1125 1125;" xml:space="preserve">
<style type="text/css">
	.st0{enable-background:new    ;}
	.st1{fill:#FFFFFF;}
	.st2{fill:none;stroke:#FFFFFF;stroke-width:15;stroke-miterlimit:10;}
	.st3{fill:none;stroke:#FFFFFF;stroke-width:12;stroke-miterlimit:10;}
</style>
<g class="st0">
	<path class="st1" d="M189.8,845c-1.8-2.3-4.2-4-7.3-5c-3.1-1.1-6-1.6-8.7-1.6c-1.6,0-3.3,0.2-5,0.6c-1.7,0.4-3.3,1-4.8,1.8
		c-1.5,0.8-2.7,1.9-3.7,3.2c-0.9,1.3-1.4,2.9-1.4,4.8c0,3,1.1,5.3,3.4,7c2.3,1.6,5.1,3,8.6,4.1c3.5,1.1,7.2,2.3,11.1,3.4
		s7.7,2.7,11.1,4.8c3.5,2.1,6.3,4.9,8.6,8.4c2.3,3.5,3.4,8.2,3.4,14.1c0,5.6-1,10.5-3.1,14.6c-2.1,4.2-4.9,7.6-8.4,10.4
		c-3.6,2.7-7.7,4.8-12.4,6.1c-4.7,1.3-9.6,2-14.8,2c-6.5,0-12.6-1-18.2-3c-5.6-2-10.8-5.2-15.6-9.7l15.8-17.3c2.3,3,5.1,5.4,8.6,7
		c3.5,1.7,7,2.5,10.7,2.5c1.8,0,3.6-0.2,5.5-0.6c1.8-0.4,3.5-1.1,5-1.9c1.5-0.9,2.6-1.9,3.6-3.3c0.9-1.3,1.3-2.9,1.3-4.7
		c0-3-1.2-5.4-3.5-7.2c-2.3-1.8-5.2-3.2-8.7-4.5c-3.5-1.2-7.3-2.5-11.4-3.7c-4.1-1.2-7.9-2.9-11.4-5c-3.5-2.1-6.4-4.8-8.7-8.2
		c-2.3-3.4-3.5-7.9-3.5-13.5c0-5.4,1.1-10.1,3.2-14.2c2.1-4.1,5-7.5,8.5-10.2c3.6-2.7,7.6-4.8,12.3-6.2c4.6-1.4,9.4-2.1,14.3-2.1
		c5.7,0,11.2,0.8,16.5,2.4c5.3,1.6,10.1,4.3,14.3,8.1L189.8,845z"/>
	<path class="st1" d="M221.6,820.4h33.5l23.1,65.6h0.3l23.3-65.6h33.4V921h-22.2v-77.1h-0.3L286.4,921h-16.9L244,843.8h-0.3V921
		h-22.2V820.4z"/>
	<path class="st1" d="M388.7,820.4h18.3L450.8,921h-25l-8.7-21.3h-39.1l-8.4,21.3h-24.4L388.7,820.4z M397.3,849.7l-12.2,31.2h24.6
		L397.3,849.7z"/>
</g>
<g class="st0">
	<path class="st1" d="M460.9,820.4h38.9c5.1,0,10,0.5,14.6,1.5c4.6,1,8.6,2.7,12.1,5c3.5,2.3,6.2,5.4,8.2,9.4
		c2,3.9,3.1,8.8,3.1,14.7c0,7.1-1.8,13.1-5.5,18.1s-9.1,8.1-16.2,9.4l25.6,42.5H515l-21-40.2H483V921h-22.2V820.4z M483,862h13.1
		c2,0,4.1-0.1,6.3-0.2c2.2-0.1,4.2-0.6,6-1.3c1.8-0.7,3.3-1.8,4.5-3.3c1.2-1.5,1.8-3.6,1.8-6.4c0-2.6-0.5-4.6-1.6-6.1
		c-1-1.5-2.4-2.7-4-3.5c-1.6-0.8-3.5-1.3-5.5-1.6c-2.1-0.3-4.1-0.4-6.1-0.4H483V862z"/>
</g>
<g class="st0">
	<path class="st1" d="M569.8,840h-28.7v-19.6h79.5V840H592V921h-22.2V840z"/>
</g>
<g class="st0">
	<path class="st1" d="M704.6,842.1c-2.8-3.7-6.4-6.5-10.8-8.5c-4.4-2-8.9-3-13.5-3c-5.7,0-10.8,1.1-15.4,3.2
		c-4.6,2.1-8.5,5-11.8,8.7c-3.3,3.7-5.8,8-7.6,13c-1.8,5-2.7,10.3-2.7,16c0,5.3,0.9,10.3,2.6,15.1c1.7,4.7,4.2,8.9,7.4,12.5
		c3.2,3.6,7.1,6.4,11.8,8.5c4.6,2.1,9.9,3.1,15.8,3.1c5.8,0,10.8-1.2,15.2-3.6c4.4-2.4,8-5.7,11.1-9.9l11.5,8.7
		c-0.8,1-2.1,2.5-4,4.5c-1.9,1.9-4.4,3.9-7.5,5.8c-3.1,1.9-6.9,3.6-11.3,5.1c-4.4,1.5-9.5,2.2-15.3,2.2c-8,0-15.1-1.5-21.5-4.5
		s-11.8-7-16.3-11.9c-4.5-4.9-7.9-10.5-10.3-16.7c-2.4-6.2-3.6-12.5-3.6-18.8c0-7.8,1.3-14.9,3.8-21.5c2.6-6.6,6.1-12.3,10.7-17
		c4.6-4.8,10.1-8.5,16.5-11.1c6.4-2.6,13.5-4,21.3-4c6.6,0,13.1,1.3,19.5,3.8c6.4,2.6,11.6,6.5,15.7,11.8L704.6,842.1z"/>
	<path class="st1" d="M734.6,820.4h13.6v41.8h52.1v-41.8h13.6V921h-13.6v-46h-52.1v46h-13.6V820.4z"/>
	<path class="st1" d="M839.8,820.4h64.9v12.8h-51.3v30h47.7v12.8h-47.7v32.2h53.8V921h-67.5V820.4z"/>
	<path class="st1" d="M926.6,820.4h63.2v12.8h-49.6v31.5h46.2v12.8h-46.2V921h-13.6V820.4z"/>
</g>
<g>
	<g>
		<path class="st1" d="M440.2,433.7c0-6.8-5.5-12.3-12.3-12.3h0c-6.8,0-12.3,5.5-12.3,12.3l0,0c0,32.4,35.7,76.9,39.8,81.9
			c4.3,5.3,12.1,6,17.4,1.7c5.3-4.3,6-12.1,1.7-17.4C461.2,483.8,440.2,451.5,440.2,433.7L440.2,433.7z M563.1,186.2L563.1,186.2"/>
		<path class="st1" d="M571,692.8H416.6c-6.9,0-13.3-2.7-18.2-7.5c-4.8-4.9-7.5-11.3-7.5-18.2l0.1-48.3h180.1v-24.7H391l0.2-121
			c0.1-4.3-2.1-8.4-5.7-10.7c-0.6-0.4-1.3-0.7-1.9-1c-40.5-17.7-66.7-57.6-66.7-101.7c0-61.2,49.8-111.1,111.1-111.1
			c2.4,0,4.9,0.3,7.4,0.5c-12.5,21.7-19.7,46.8-19.7,73.5c0,6.8,5.5,12.3,12.3,12.3h0c6.8,0,12.3-5.5,12.3-12.3l0,0
			c0-68,55.3-123.4,123.4-123.4c2.5,0,5,0.1,7.4,0.2v-24.7c-2.5-0.1-4.9-0.2-7.4-0.2c-44.9,0-85.1,20.2-112.3,51.9
			c-8.1-1.5-15.9-2.5-23.4-2.5c-74.8,0-135.7,60.9-135.7,135.7c0,51.3,28.9,97.9,74.3,121l-0.2,186.5c0,13.5,5.2,26.1,14.7,35.6
			c9.5,9.5,22.2,14.8,35.6,14.8H571V692.8L571,692.8z"/>
	</g>
	<line class="st2" x1="575.5" y1="174.6" x2="575.5" y2="717.1"/>
	<circle class="st3" cx="762.6" cy="587.1" r="21.7"/>
	<circle class="st3" cx="739.5" cy="244" r="21.7"/>
	<circle class="st3" cx="811.1" cy="335" r="21.7"/>
	<circle class="st3" cx="663.1" cy="451.5" r="21.7"/>
	<circle class="st3" cx="811.1" cy="483.1" r="21.7"/>
	<circle class="st3" cx="669.1" cy="575.3" r="21.7"/>
	<circle class="st3" cx="699.5" cy="670" r="21.7"/>
	<circle class="st3" cx="722.5" cy="512.2" r="21.7"/>
	<polyline class="st3" points="573.8,290.6 695.1,290.6 730,255.6 	"/>
	<line class="st3" x1="571.3" y1="336" x2="796.2" y2="336"/>
	<polyline class="st3" points="572.5,396 703.9,396 799.7,473.6 	"/>
	<line class="st3" x1="575.1" y1="450.6" x2="647.8" y2="450.6"/>
	<line class="st3" x1="575.1" y1="513" x2="709.1" y2="513"/>
	<line class="st3" x1="579" y1="575.5" x2="653.8" y2="575.5"/>
	<polyline class="st3" points="578.6,627.9 652.6,627.9 689,658.9 	"/>
	<circle class="st3" cx="784.2" cy="401" r="21.7"/>
</g>
</svg>
